<?xml version="1.0" encoding="UTF-8"?>
<!DOCTYPE svg PUBLIC "-//W3C//DTD SVG 1.1//EN" "http://www.w3.org/Graphics/SVG/1.1/DTD/svg11.dtd">
<!-- Creator: CorelDRAW 2018 (64-Bit) -->
<svg xmlns="http://www.w3.org/2000/svg" xml:space="preserve" width="257px" height="30px" version="1.1" style="shape-rendering:geometricPrecision; text-rendering:geometricPrecision; image-rendering:optimizeQuality; fill-rule:evenodd; clip-rule:evenodd"
viewBox="0 0 257 30"
 xmlns:xlink="http://www.w3.org/1999/xlink">
 <defs>
  <style type="text/css">
   <![CDATA[
    .fil1 {fill:#1066A2}
    .fil0 {fill:#F58634;fill-rule:nonzero}
   ]]>
  </style>
 </defs>
 <g id="Слой_x0020_1">
  <metadata id="CorelCorpID_0Corel-Layer"/>
  <g id="_1582720839520">
   <path class="fil0" d="M253.491 28.244l-3.307 0 0.005 -21.473 -6.128 16.173c-1.338,3.201 -5.696,2.709 -6.623,0l-6.196 -15.149 0.016 5.795 0 8.616 0 0.18 0 0.18 0 0.18 0.001 0.052 -0.001 0 0 2.855c-0.019,1.702 -0.909,2.521 -2.592,2.591l-2.789 0 0 -4.486 0 -19.42 0.001 -0.061 0.002 -0.06 0.001 0 0.004 -0.061 0.007 -0.06 0.008 -0.061 0.01 -0.06 0.012 -0.06 0.013 -0.061 0.015 -0.06 0.017 -0.059 0 0 0.019 -0.059 0.019 -0.059 0.022 -0.058 0.023 -0.058 0.024 -0.058 0.026 -0.058 0.027 -0.057 0.029 -0.056 0.03 -0.056 0.001 0 0.031 -0.055 0.032 -0.055 0.001 0 0.033 -0.053 0.035 -0.053 0.037 -0.053 0 0 0.038 -0.052 0 0 0.039 -0.052 0 0 0.04 -0.05 0 0 0.041 -0.049 0.042 -0.049 0.043 -0.048 0.044 -0.047 0.045 -0.046 0.001 0 0.045 -0.045 0.048 -0.045 0.047 -0.043 0 0 0.049 -0.042 0.05 -0.041 0.05 -0.04 0.051 -0.039 0.001 0 0.051 -0.037 0 0 0.053 -0.037 0 0 0.053 -0.035 0.054 -0.034 0.055 -0.033 0.055 -0.031 0.056 -0.03 0.056 -0.029 0.057 -0.028 0 0 0.057 -0.026 0.058 -0.024 0 0 0.058 -0.023 0 0 0.059 -0.021 0.058 -0.02 0.001 0 0.059 -0.018 0.059 -0.017 0.06 -0.015 0.06 -0.014 0 0 0.06 -0.011 0.001 0 0.06 -0.011 0.06 -0.008 0.061 -0.007 0.061 -0.004 0.06 -0.003 0.061 -0.001 0.638 0 5.51 0 6.323 16.897 6.119 -15.458c0.478,-0.961 1.248,-1.443 2.315,-1.439l4.127 0 2.578 0 0 23.911c-0.006,1.774 -0.723,2.587 -2.592,2.591z"/>
   <path class="fil0" d="M208.378 28.705c-3.799,0 -6.89,-1.236 -9.281,-3.703 -2.391,-2.473 -3.583,-5.691 -3.583,-9.659 0,-4.188 1.211,-7.576 3.64,-10.162 2.429,-2.587 5.64,-3.886 9.646,-3.886 3.785,0 6.845,1.242 9.179,3.715 2.334,2.479 3.501,5.747 3.501,9.797 0,4.164 -1.211,7.526 -3.634,10.075 -2.416,2.549 -5.576,3.823 -9.468,3.823zm0.258 -22.269c-2.095,0 -3.76,0.782 -4.99,2.359 -1.23,1.571 -1.849,3.647 -1.849,6.233 0,2.624 0.619,4.7 1.849,6.233 1.23,1.526 2.845,2.29 4.838,2.29 2.063,0 3.691,-0.745 4.902,-2.227 1.205,-1.489 1.811,-3.545 1.811,-6.182 0,-2.751 -0.587,-4.89 -1.754,-6.416 -1.173,-1.527 -2.776,-2.29 -4.807,-2.29z"/>
   <path class="fil0" d="M191.581 27.849c-1.753,0.592 -3.619,0.856 -6.142,0.856 -4.063,0 -7.261,-1.192 -9.588,-3.583 -2.335,-2.392 -3.496,-5.577 -3.496,-9.558 0,-4.239 1.307,-7.677 3.924,-10.314 2.618,-2.637 6.019,-3.955 10.195,-3.955 1.568,0 2.655,0.098 3.793,0.297 1.564,0.272 2.715,0.801 2.749,2.693l0 1.552c-0.157,1.596 -1.487,1.442 -2.214,1.216 -1.201,-0.373 -2.469,-0.617 -3.848,-0.617 -2.486,0 -4.498,0.782 -6.025,2.347 -1.527,1.564 -2.29,3.684 -2.29,6.359 0,2.561 0.719,4.605 2.164,6.125 1.438,1.52 3.381,2.284 5.822,2.284 1.651,0 2.725,-0.421 4.246,-0.76 0.894,-0.2 2.148,0.207 2.145,1.166l0 1.396c-0.05,1.557 -0.523,2.188 -1.435,2.496z"/>
   <path class="fil0" d="M156.515 28.705c-3.798,0 -6.889,-1.236 -9.28,-3.703 -2.391,-2.473 -3.584,-5.691 -3.584,-9.659 0,-4.188 1.212,-7.576 3.64,-10.162 2.429,-2.587 5.64,-3.886 9.646,-3.886 3.786,0 6.845,1.242 9.179,3.715 2.335,2.479 3.501,5.747 3.501,9.797 0,4.164 -1.211,7.526 -3.634,10.075 -2.415,2.549 -5.576,3.823 -9.468,3.823zm0.258 -22.269c-2.094,0 -3.76,0.782 -4.99,2.359 -1.23,1.571 -1.849,3.647 -1.849,6.233 0,2.624 0.619,4.7 1.849,6.233 1.23,1.526 2.845,2.29 4.839,2.29 2.063,0 3.691,-0.745 4.902,-2.227 1.204,-1.489 1.81,-3.545 1.81,-6.182 0,-2.751 -0.587,-4.89 -1.754,-6.416 -1.173,-1.527 -2.775,-2.29 -4.807,-2.29z"/>
   <path class="fil0" d="M140.951 6.6l-9.349 0 0 6.51 5.997 0c1.298,0 2.596,1.299 2.596,2.597l0 2.242 -8.593 0 0 10.295 -3.378 0c-1.298,0 -2.596,-1.298 -2.596,-2.596l0 -23.906 12.727 0c1.298,0 2.596,1.298 2.596,2.596l0 2.262z"/>
   <path class="fil0" d="M116.362 28.253c-0.979,-0.018 -2.331,0.218 -3.834,-1.562l-9.907 -15.101c-0.637,-0.971 -1.085,-1.704 -1.331,-2.196l-0.069 0c0.094,0.934 0.145,2.367 0.145,4.284l0 12.543c0,0.922 -0.644,2.023 -1.523,2.023l-1.521 0 -2.596 0 0 -2.596 0 -1.563 0 -19.747c0.262,-1.988 2.244,-2.639 3.554,-2.595 1.444,-0.044 2.674,0.133 3.884,1.539l9.513 14.592c0.479,0.731 0.921,1.45 1.331,2.163l0.076 0c-0.101,-0.612 -0.152,-1.829 -0.152,-3.64l0 -12.08c0,-1.276 1.298,-2.575 2.606,-2.575l3.032 0 0.002 2.596 0 16.445 0 4.865c-0.073,1.933 -1.998,2.627 -3.21,2.605z"/>
   <path class="fil0" d="M87.111 28.244l-3.378 0c0,-7.968 0,-15.937 0,-23.906 0,-1.298 1.298,-2.596 2.596,-2.596l3.378 0 0 23.914c0,1.29 -1.298,2.588 -2.596,2.588z"/>
   <path class="fil0" d="M77.263 28.244l-16.179 0c-2.323,0 -3.303,-2.676 -1.762,-4.558l12.747 -17.086 -12.605 0 0 -2.257c0,-1.302 1.299,-2.601 2.612,-2.601l14.74 0 2.981 0c0.1,2.002 -0.307,3.75 -1.337,5.186l-11.949 16.471 13.324 0 0 2.257c0,1.29 -1.298,2.588 -2.572,2.588z"/>
   <path class="fil0" d="M54.992 16.769c0,7.955 -3.71,11.936 -11.122,11.936 -7.199,0 -10.796,-3.886 -10.794,-11.658l0.003 -12.709c0,-1.298 0.743,-2.596 2.598,-2.596l3.386 0 0 15.374c0,4.29 1.677,6.435 5.027,6.435 3.287,0 4.934,-2.069 4.934,-6.214l0 -12.999c0,-1.298 1.322,-2.596 2.591,-2.596l3.377 0 0 15.027z"/>
   <path class="fil1" d="M27.226 1.777l-22.853 0c-1.901,0 -3.456,1.555 -3.456,3.455l0 0.769c0.625,0.095 1.32,0.28 2.072,0.546 2.368,0.841 5.316,2.501 8.481,4.794 2.573,-1.917 4.941,-3.288 6.861,-3.969 1.876,-0.665 3.332,-0.673 4.146,0.109 0.923,0.886 0.886,2.656 0.063,4.975 -0.84,2.368 -2.501,5.317 -4.793,8.482 1.917,2.573 3.288,4.941 3.968,6.861 0.035,0.097 0.067,0.192 0.098,0.287l1.957 0c1.901,0 3.456,-1.555 3.456,-3.456l0 -22.853zm-26.309 14.51l0 8.343c0,1.293 0.72,2.425 1.778,3.018 0.807,0.023 1.782,-0.175 2.892,-0.574 2.263,-0.813 5.078,-2.459 8.156,-4.764 0.024,-0.018 0.059,-0.013 0.078,0.011 0.017,0.023 0.014,0.055 -0.006,0.074l0 0.001c-0.867,0.827 -1.731,1.609 -2.584,2.342 -0.867,0.747 -1.724,1.443 -2.56,2.083l0 0 -0.489 0.369 0 0.001 -0.001 0 0 0c-0.42,0.313 -0.834,0.612 -1.243,0.895l10.668 0c0.79,-0.91 0.745,-2.514 0.001,-4.586 -0.813,-2.262 -2.459,-5.077 -4.765,-8.155 -0.018,-0.025 -0.013,-0.06 0.011,-0.079 0.023,-0.017 0.055,-0.014 0.074,0.007l0.001 -0.001c0.827,0.868 1.609,1.732 2.343,2.584 0.725,0.844 1.403,1.676 2.028,2.491 1.083,-2.113 1.782,-3.986 2.032,-5.499 0.241,-1.462 0.062,-2.584 -0.595,-3.255 -0.885,-0.904 -2.539,-0.89 -4.704,-0.112 -2.262,0.813 -5.077,2.459 -8.155,4.764 -0.025,0.019 -0.06,0.013 -0.079,-0.011 -0.017,-0.023 -0.014,-0.055 0.007,-0.074l0 0c0.866,-0.827 1.73,-1.609 2.582,-2.342 0.844,-0.726 1.677,-1.404 2.492,-2.03 -2.112,-1.083 -3.986,-1.781 -5.499,-2.031 -1.462,-0.241 -2.584,-0.063 -3.255,0.594 -0.904,0.885 -0.89,2.539 -0.112,4.704 0.813,2.263 2.459,5.078 4.764,8.156 0.019,0.024 0.013,0.059 -0.011,0.078 -0.023,0.017 -0.055,0.014 -0.074,-0.006l0 0c-0.827,-0.867 -1.609,-1.731 -2.342,-2.583 -0.747,-0.868 -1.443,-1.725 -2.083,-2.561l-0.001 -0.001 -0.369 -0.488 0 0 -0.001 -0.001 0 0c-0.344,-0.461 -0.67,-0.916 -0.979,-1.362z"/>
  </g>
 </g>
</svg>
